# File created by Blade
# Date/Time:  Wed Apr 08 17:39:35 2015
# Frame Rate: 120.000 fps
#------------------------------------------------------
:FULLY-SPECIFIED
:DEGREES
3922
root 8.519546 37.883036 -0.036256 195.712956 -28.803555 -512.511738
Spine -11.060530 -4.338684 0.724505
Head 32.249023 -16.648994 26.473062
LeftShoulder -6.016874 17.692724 19.664738
LeftArm 21.343712 20.044543 -73.175958
LeftForeArm 15.187207 -0.000000 26.269844
LeftHand -12.603709 -0.000000 -11.092466
LeftHandThumb1 -26.253704 0.000000 33.147579
RightShoulder -39.027185 -47.229881 22.850331
RightArm 47.531583 -2.619895 63.951153
RightForeArm 8.680344 -0.000000 10.465574
RightHand 1.091009 -0.000000 12.083306
RightHandThumb1 -24.326973 -0.000000 -32.862282
LeftUpLeg -36.685235 31.673437 -2.193352
LeftLeg 6.391408 -0.000000 -0.000000
LeftFoot -10.030351 14.891436 -4.433430
LeftToeBase 9.209776 -0.000000 -0.000000
RightUpLeg -55.539925 9.179040 -0.633171
RightLeg 120.781352 -0.000000 -0.000000
RightFoot -3.824594 -3.631182 13.969536
RightToeBase -4.907529 -0.000000 0.000000
3923
root 8.493481 37.881362 -0.066966 195.627127 -29.116521 -512.640507
Spine -11.161304 -4.381089 0.697479
Head 32.331074 -16.426034 26.506568
LeftShoulder -6.047610 17.709826 19.700726
LeftArm 21.404761 19.984134 -73.191825
LeftForeArm 15.043827 -0.000000 26.477739
LeftHand -12.616763 -0.000000 -10.909261
LeftHandThumb1 -26.253704 0.000000 33.147579
RightShoulder -39.159094 -47.273688 22.988215
RightArm 47.520915 -2.754637 63.882878
RightForeArm 7.973267 0.000000 10.355215
RightHand 1.087099 -0.000000 12.077650
RightHandThumb1 -24.326973 -0.000000 -32.862282
LeftUpLeg -36.571670 31.664140 -2.340310
LeftLeg 6.381441 -0.000000 -0.000000
LeftFoot -10.095494 14.517298 -4.624104
LeftToeBase 9.429564 -0.000000 -0.000000
RightUpLeg -55.480197 9.226511 -0.538703
RightLeg 120.280578 -0.000000 -0.000000
RightFoot -4.684506 -4.125549 14.030176
RightToeBase -5.111226 -0.000000 0.000000
3924
root 8.468045 37.879643 -0.098476 195.576386 -29.410890 -512.757783
Spine -11.322717 -4.379649 0.664367
Head 32.431085 -16.242328 26.510886
LeftShoulder -6.036351 17.706609 19.749407
LeftArm 21.419472 19.910658 -73.215404
LeftForeArm 14.853473 -0.000000 26.695413
LeftHand -12.566515 -0.000000 -10.799213
LeftHandThumb1 -26.253704 0.000000 33.147579
RightShoulder -39.323449 -47.320146 23.143032
RightArm 47.509899 -2.925552 63.760533
RightForeArm 7.274497 -0.000000 10.227741
RightHand 0.978824 -0.000000 12.221033
RightHandThumb1 -24.326973 -0.000000 -32.862282
LeftUpLeg -36.575969 31.772875 -2.588661
LeftLeg 6.423942 -0.000000 -0.000000
LeftFoot -10.150781 14.046526 -4.734167
LeftToeBase 9.629818 -0.000000 -0.000000
RightUpLeg -55.469622 9.297084 -0.416150
RightLeg 119.705401 -0.000000 -0.000000
RightFoot -5.457901 -4.348480 14.329235
RightToeBase -5.660957 -0.000000 0.000000
3925
root 8.442873 37.877820 -0.132324 195.486328 -29.749812 -512.876940
Spine -11.439795 -4.426798 0.642190
Head 32.507573 -16.008684 26.520356
LeftShoulder -6.081550 17.727006 19.767617
LeftArm 21.525225 19.884773 -73.174910
LeftForeArm 14.709191 0.000000 26.868080
LeftHand -12.690766 -0.000000 -10.870647
LeftHandThumb1 -26.253704 0.000000 33.147579
RightShoulder -39.413048 -47.330312 23.229353
RightArm 47.466129 -3.154172 63.596702
RightForeArm 6.838386 -0.000000 10.070779
RightHand 0.868212 -0.000000 12.413970
RightHandThumb1 -24.326973 -0.000000 -32.862282
LeftUpLeg -36.472962 31.752264 -2.727057
LeftLeg 6.429693 -0.000000 -0.000000
LeftFoot -10.192808 13.662075 -4.892341
LeftToeBase 9.823884 -0.000000 -0.000000
RightUpLeg -55.418365 9.295252 -0.221359
RightLeg 119.057547 -0.000000 -0.000000
RightFoot -6.148423 -4.490124 14.700755
RightToeBase -6.298719 -0.000000 0.000000
3926
root 8.418271 37.875221 -0.165447 195.380005 -30.171977 -513.015363
Spine -11.536454 -4.549664 0.624793
Head 32.601698 -15.766557 26.492664
LeftShoulder -6.042091 17.643455 19.824089
LeftArm 21.462504 19.672391 -73.288336
LeftForeArm 14.625523 -0.000000 27.017147
LeftHand -12.663286 -0.000000 -10.893127
LeftHandThumb1 -26.253704 0.000000 33.147579
RightShoulder -39.453953 -47.387271 23.243413
RightArm 47.400563 -3.356642 63.552583
RightForeArm 6.378461 -0.000000 9.965662
RightHand 0.890396 0.000000 12.758351
RightHandThumb1 -24.326973 -0.000000 -32.862282
LeftUpLeg -36.296803 31.562427 -2.775547
LeftLeg 6.419770 -0.000000 -0.000000
LeftFoot -10.206723 13.356596 -5.060164
LeftToeBase 9.954971 -0.000000 -0.000000
RightUpLeg -55.340993 9.216978 -0.003747
RightLeg 118.333624 -0.000000 -0.000000
RightFoot -7.003058 -4.536073 15.002621
RightToeBase -5.827052 -0.000000 0.000000
3927
root 8.392090 37.871051 -0.201557 195.236201 -30.555716 -513.140292
Spine -11.602661 -4.651322 0.616999
Head 32.707546 -15.467662 26.449284
LeftShoulder -6.052714 17.657920 19.816602
LeftArm 21.483775 19.495652 -73.298290
LeftForeArm 14.548581 0.000000 27.245884
LeftHand -12.609377 -0.000000 -10.800000
LeftHandThumb1 -26.253704 0.000000 33.147579
RightShoulder -39.380764 -47.456773 23.171274
RightArm 47.268099 -3.548905 63.534000
RightForeArm 6.058428 -0.000000 9.913370
RightHand 0.742637 -0.000000 13.296992
RightHandThumb1 -24.326973 -0.000000 -32.862282
LeftUpLeg -36.116168 31.491130 -2.848161
LeftLeg 6.441970 -0.000000 -0.000000
LeftFoot -10.297841 12.985659 -5.286973
LeftToeBase 10.226498 -0.000000 -0.000000
RightUpLeg -55.237759 9.106273 0.314020
RightLeg 117.504574 -0.000000 -0.000000
RightFoot -7.466987 -4.644348 14.636078
RightToeBase -6.333609 -0.000000 0.000000
3928
root 8.362586 37.864678 -0.241236 195.075371 -30.932548 -513.299039
Spine -11.640573 -4.725350 0.562677
Head 32.794353 -15.205590 26.390220
LeftShoulder -6.075863 17.649819 19.801589
LeftArm 21.549315 19.414734 -73.234663
LeftForeArm 14.385010 -0.000000 27.426742
LeftHand -12.600297 0.000000 -10.693288
LeftHandThumb1 -26.253704 0.000000 33.147579
RightShoulder -39.352426 -47.518511 23.134865
RightArm 47.142868 -3.717286 63.529117
RightForeArm 5.779819 0.000000 9.876220
RightHand 0.586163 -0.000000 13.752026
RightHandThumb1 -24.326973 -0.000000 -32.862282
LeftUpLeg -35.887360 31.453903 -2.949748
LeftLeg 6.451649 -0.000000 -0.000000
LeftFoot -10.370733 12.564153 -5.448241
LeftToeBase 10.455424 -0.000000 -0.000000
RightUpLeg -55.085512 8.967596 0.628850
RightLeg 116.583543 -0.000000 -0.000000
RightFoot -7.860200 -4.669217 14.495726
RightToeBase -6.467641 -0.000000 0.000000
3929
root 8.329995 37.857601 -0.270847 195.069530 -31.277251 -513.507055
Spine -11.837044 -4.782159 0.493081
Head 32.906849 -14.909286 26.282047
LeftShoulder -6.003587 17.574141 19.834907
LeftArm 21.396712 19.238072 -73.319299
LeftForeArm 14.333451 0.000000 27.693849
LeftHand -12.620337 -0.000000 -10.634848
LeftHandThumb1 -26.253704 0.000000 33.147579
RightShoulder -39.295374 -47.600238 23.045116
RightArm 46.958258 -3.854760 63.573469
RightForeArm 5.469172 -0.000000 9.955468
RightHand 0.414204 0.000000 14.327752
RightHandThumb1 -24.326973 -0.000000 -32.862282
LeftUpLeg -35.774222 31.349018 -3.137057
LeftLeg 6.441821 -0.000000 -0.000000
LeftFoot -10.411966 12.205650 -5.633092
LeftToeBase 10.667136 -0.000000 -0.000000
RightUpLeg -55.098018 8.831377 0.851282
RightLeg 115.581883 -0.000000 -0.000000
RightFoot -8.144120 -4.560293 14.705096
RightToeBase -6.429066 -0.000000 0.000000
